<?xml version="1.0" encoding="utf-8"?>
<!-- Generator: Adobe Illustrator 16.0.0, SVG Export Plug-In . SVG Version: 6.00 Build 0)  -->
<!DOCTYPE svg PUBLIC "-//W3C//DTD SVG 1.1//EN" "http://www.w3.org/Graphics/SVG/1.1/DTD/svg11.dtd">
<svg version="1.1" xmlns="http://www.w3.org/2000/svg" xmlns:xlink="http://www.w3.org/1999/xlink" x="0px" y="0px" width="500px"
	 height="500px" viewBox="0 0 500 500" enable-background="new 0 0 500 500" xml:space="preserve">
<g id="Layer_19">
	<g>
		<path d="M52.703,492.5c-24.592,0-44.6-20.008-44.6-44.601V53.1c0-24.592,20.007-44.6,44.6-44.6h394.8
			c24.593,0,44.601,20.007,44.601,44.6v394.8c0,24.593-20.008,44.601-44.601,44.601H52.703z"/>
		<path d="M447.503,15.5c20.768,0,37.601,16.834,37.601,37.6v394.8c0,20.768-16.833,37.601-37.601,37.601h-394.8
			c-20.766,0-37.6-16.833-37.6-37.601V53.1c0-20.766,16.834-37.6,37.6-37.6H447.503 M447.503,1.5h-394.8
			c-28.452,0-51.6,23.147-51.6,51.6v394.8c0,28.452,23.147,51.601,51.6,51.601h394.8c28.452,0,51.601-23.148,51.601-51.601V53.1
			C499.104,24.647,475.955,1.5,447.503,1.5L447.503,1.5z"/>
	</g>
</g>
<g id="Layer_3_copy_12" display="none">
	<circle display="inline" fill="#FFFFFF" cx="237.342" cy="72.849" r="35.248"/>
	<path display="inline" fill="none" stroke="#FFFFFF" stroke-width="34" d="M325.88,331.058
		c-7.621,55.1-54.907,97.527-112.104,97.527c-62.506,0-113.178-50.672-113.178-113.18c0-56.876,41.956-103.955,96.606-111.973"/>
	
		<polyline display="inline" fill="none" stroke="#FFFFFF" stroke-width="34" stroke-linecap="round" stroke-linejoin="round" points="
		229.592,142.096 232.592,293.588 355.586,293.588 398.662,386.924 400.583,391.083 432.082,376.084 	"/>
	<path display="inline" fill="none" d="M231.092,202.093"/>
	
		<line display="inline" fill="none" stroke="#FFFFFF" stroke-width="34" stroke-linecap="round" x1="231.092" y1="200.093" x2="297.089" y2="200.093"/>
	<path display="inline" fill="none" d="M231.092,202.093"/>
	<rect x="185.594" y="169.095" display="inline" width="20.999" height="68.997"/>
	
		<rect x="300.09" y="297.099" transform="matrix(-0.0135 0.9999 -0.9999 -0.0135 646.3594 25.5237)" display="inline" width="20.999" height="68.997"/>
</g>
<g id="Layer_3_copy_13">
	<circle fill="#FFFFFF" cx="236.342" cy="74.849" r="35.248"/>
	<path fill="none" stroke="#FFFFFF" stroke-width="34" d="M324.88,333.058c-7.621,55.1-54.907,97.527-112.104,97.527
		c-62.506,0-113.178-50.672-113.178-113.18c0-56.876,41.956-103.955,96.606-111.973"/>
	<polyline fill="none" stroke="#FFFFFF" stroke-width="34" stroke-linecap="round" stroke-linejoin="round" points="
		228.592,144.096 231.592,295.588 354.586,295.588 397.662,388.924 399.583,393.083 431.082,378.084 	"/>
	<path fill="none" d="M230.092,204.093"/>
	
		<line fill="none" stroke="#FFFFFF" stroke-width="34" stroke-linecap="round" x1="230.092" y1="202.093" x2="296.089" y2="202.093"/>
	<path fill="none" d="M230.092,204.093"/>
	<rect x="184.594" y="171.095" width="20.999" height="68.997"/>
	
		<rect x="299.09" y="299.099" transform="matrix(-0.0135 0.9999 -0.9999 -0.0135 647.3456 28.5507)" width="20.999" height="68.997"/>
	<g>
		<defs>
			<rect id="SVGID_1_" x="346" y="31.525" width="126.587" height="177.475"/>
		</defs>
		<clipPath id="SVGID_2_">
			<use xlink:href="#SVGID_1_"  overflow="visible"/>
		</clipPath>
		<path clip-path="url(#SVGID_2_)" fill="#FFFFFF" d="M363.504,208.722c9.475,0,17.154-8.242,17.154-18.409
			s-7.68-18.409-17.154-18.409s-17.154,8.242-17.154,18.409S354.029,208.722,363.504,208.722"/>
		
			<ellipse clip-path="url(#SVGID_2_)" fill="none" stroke="#FFFFFF" stroke-width="0.558" cx="363.504" cy="190.312" rx="17.154" ry="18.409"/>
		<path clip-path="url(#SVGID_2_)" fill="#FFFFFF" d="M417.637,31.524c9.934,0,18.389,1.446,25.361,4.338
			c6.97,2.893,12.643,6.713,17.02,11.458c4.373,4.748,7.564,10.16,9.566,16.24c2.002,6.083,3.003,12.386,3.003,18.91
			c0,6.379-1.001,12.646-3.003,18.799c-2.002,6.157-5.193,11.607-9.566,16.353c-4.377,4.748-10.05,8.564-17.02,11.456
			c-6.973,2.894-15.428,4.34-25.361,4.34h-36.709v56.952H346V31.524H417.637z M408.07,106.275c4.005,0,7.859-0.295,11.568-0.89
			c3.705-0.591,6.969-1.741,9.788-3.448c2.816-1.704,5.079-4.116,6.786-7.23c1.703-3.114,2.559-7.192,2.559-12.236
			c0-5.04-0.855-9.121-2.559-12.236c-1.707-3.113-3.97-5.522-6.786-7.229c-2.819-1.703-6.083-2.854-9.788-3.448
			c-3.709-0.591-7.563-0.89-11.568-0.89h-27.143v47.608H408.07z"/>
	</g>
</g>
</svg>
